<svg width="312" height="22" viewBox="0 0 312 22" fill="none" xmlns="http://www.w3.org/2000/svg">
<path fill-rule="evenodd" clip-rule="evenodd" d="M266.102 15.8548L269.424 0.14679H277.366L276.992 1.88479H271.03L269.996 6.79079H271.536C272.768 6.79079 273.728 6.96679 274.418 7.31879C275.107 7.67079 275.591 8.14012 275.87 8.72679C276.163 9.31346 276.31 9.96612 276.31 10.6848C276.31 11.5795 276.156 12.3495 275.848 12.9948C275.554 13.6401 275.129 14.1755 274.572 14.6008C274.029 15.0261 273.376 15.3415 272.614 15.5468C271.851 15.7521 271.015 15.8548 270.106 15.8548H266.102ZM270.392 14.1828C271.272 14.1828 271.998 14.0581 272.57 13.8088C273.142 13.5595 273.567 13.1855 273.846 12.6868C274.139 12.1881 274.286 11.5721 274.286 10.8388C274.286 9.97346 274.044 9.36479 273.56 9.01279C273.076 8.66079 272.401 8.48479 271.536 8.48479H269.644L268.412 14.1828H270.392ZM277.594 16.0088C277.403 16.0088 277.227 15.9868 277.066 15.9428C276.905 15.9135 276.78 15.8841 276.692 15.8548V14.1828C276.795 14.2268 276.905 14.2635 277.022 14.2928C277.139 14.3075 277.271 14.3148 277.418 14.3148C277.77 14.3148 278.078 14.2341 278.342 14.0728C278.621 13.8968 278.877 13.6255 279.112 13.2588C279.347 12.8921 279.581 12.4155 279.816 11.8288C280.065 11.2421 280.329 10.5381 280.608 9.71679C280.945 8.73412 281.268 7.88346 281.576 7.16479C281.884 6.44612 282.229 5.85212 282.61 5.38279C283.006 4.89879 283.49 4.53946 284.062 4.30479C284.634 4.07012 285.345 3.95279 286.196 3.95279C286.695 3.95279 287.179 3.98946 287.648 4.06279C288.117 4.12146 288.543 4.20946 288.924 4.32679L286.46 15.8548H284.502L286.724 5.66879C286.621 5.63946 286.497 5.61746 286.35 5.60279C286.203 5.58812 286.049 5.58079 285.888 5.58079C285.287 5.58079 284.795 5.72746 284.414 6.02079C284.047 6.29946 283.71 6.78346 283.402 7.47279C283.094 8.16212 282.727 9.13012 282.302 10.3768C281.979 11.2861 281.671 12.0928 281.378 12.7968C281.085 13.4861 280.769 14.0728 280.432 14.5568C280.095 15.0261 279.699 15.3855 279.244 15.6348C278.789 15.8841 278.239 16.0088 277.594 16.0088ZM295.083 16.0308C294.174 16.0308 293.389 15.8475 292.729 15.4808C292.069 15.1141 291.563 14.5935 291.211 13.9188C290.859 13.2295 290.683 12.4228 290.683 11.4988C290.683 10.7801 290.764 10.0615 290.925 9.34279C291.086 8.60946 291.321 7.92012 291.629 7.27479C291.952 6.62946 292.348 6.05746 292.817 5.55879C293.286 5.04546 293.836 4.64212 294.467 4.34879C295.098 4.05546 295.802 3.90879 296.579 3.90879C297.503 3.90879 298.288 4.09212 298.933 4.45879C299.593 4.82546 300.099 5.35346 300.451 6.04279C300.803 6.71746 300.979 7.52412 300.979 8.46279C300.979 9.18146 300.898 9.90012 300.737 10.6188C300.576 11.3375 300.334 12.0268 300.011 12.6868C299.703 13.3321 299.314 13.9041 298.845 14.4028C298.376 14.9015 297.826 15.2975 297.195 15.5908C296.564 15.8841 295.86 16.0308 295.083 16.0308ZM295.193 14.4248C295.618 14.4248 296.014 14.3368 296.381 14.1608C296.762 13.9848 297.114 13.7281 297.437 13.3908C297.76 13.0388 298.031 12.6135 298.251 12.1148C298.486 11.6015 298.669 11.0221 298.801 10.3768C298.933 9.73146 298.999 9.02012 298.999 8.24279C298.999 7.80279 298.918 7.37746 298.757 6.96679C298.61 6.54146 298.361 6.19679 298.009 5.93279C297.657 5.65412 297.188 5.51479 296.601 5.51479C296.117 5.51479 295.67 5.61746 295.259 5.82279C294.848 6.02812 294.482 6.32146 294.159 6.70279C293.836 7.06946 293.558 7.50946 293.323 8.02279C293.103 8.52146 292.934 9.07146 292.817 9.67279C292.7 10.2741 292.641 10.9048 292.641 11.5648C292.641 12.4741 292.861 13.1781 293.301 13.6768C293.756 14.1755 294.386 14.4248 295.193 14.4248ZM306.379 16.0748C305.705 16.0748 305.074 15.9721 304.487 15.7668C303.915 15.5615 303.453 15.2388 303.101 14.7988C302.749 14.3588 302.573 13.7868 302.573 13.0828C302.573 12.5108 302.683 12.0121 302.903 11.5868C303.138 11.1615 303.446 10.8021 303.827 10.5088C304.209 10.2008 304.634 9.94412 305.103 9.73879C305.573 9.51879 306.042 9.32079 306.511 9.14479C307.098 8.91012 307.619 8.69012 308.073 8.48479C308.528 8.26479 308.88 8.01546 309.129 7.73679C309.393 7.44346 309.525 7.09879 309.525 6.70279C309.525 6.33612 309.408 6.04279 309.173 5.82279C308.939 5.58812 308.521 5.47079 307.919 5.47079C307.347 5.47079 306.783 5.55146 306.225 5.71279C305.668 5.85946 305.155 6.03546 304.685 6.24079L304.157 4.70079C304.671 4.51012 305.257 4.32679 305.917 4.15079C306.577 3.96012 307.311 3.86479 308.117 3.86479C308.777 3.86479 309.357 3.96012 309.855 4.15079C310.369 4.32679 310.765 4.61279 311.043 5.00879C311.337 5.40479 311.483 5.93279 311.483 6.59279C311.483 7.10612 311.381 7.56079 311.175 7.95679C310.97 8.33812 310.691 8.67546 310.339 8.96879C309.987 9.24746 309.591 9.49679 309.151 9.71679C308.711 9.92212 308.257 10.1128 307.787 10.2888C307.127 10.5381 306.548 10.7801 306.049 11.0148C305.565 11.2348 305.191 11.4915 304.927 11.7848C304.663 12.0781 304.531 12.4595 304.531 12.9288C304.531 13.3981 304.7 13.7721 305.037 14.0508C305.389 14.3295 305.932 14.4688 306.665 14.4688C307.061 14.4688 307.45 14.4321 307.831 14.3588C308.213 14.2708 308.587 14.1608 308.953 14.0288C309.32 13.8821 309.679 13.7281 310.031 13.5668V15.2608C309.518 15.4955 308.968 15.6935 308.381 15.8548C307.795 16.0015 307.127 16.0748 306.379 16.0748ZM0.743408 16.079L4.06541 0.371041H6.02341L4.61541 7.01504H11.5234L12.9314 0.371041H14.8674L11.5454 16.079H9.60941L11.1494 8.75304H4.24141L2.70141 16.079H0.743408ZM19.0185 16.299C18.3879 16.299 17.8305 16.1524 17.3465 15.859C16.8772 15.551 16.5032 15.0964 16.2245 14.495C15.9605 13.8937 15.8285 13.153 15.8285 12.273C15.8285 11.393 15.9165 10.5497 16.0925 9.74304C16.2832 8.92171 16.5472 8.16638 16.8845 7.47704C17.2219 6.78771 17.6252 6.19371 18.0945 5.69504C18.5785 5.18171 19.1139 4.78571 19.7005 4.50704C20.3019 4.21371 20.9399 4.06704 21.6145 4.06704C22.1279 4.06704 22.5752 4.16237 22.9565 4.35304C23.3525 4.54371 23.6825 4.79304 23.9465 5.10104C24.2105 5.40904 24.4232 5.74638 24.5845 6.11304H24.6945L25.3985 4.28704H26.8725L24.3645 16.079H22.8245L23.1105 13.901H23.0225C22.6852 14.3264 22.3112 14.7224 21.9005 15.089C21.4899 15.4557 21.0425 15.749 20.5585 15.969C20.0892 16.189 19.5759 16.299 19.0185 16.299ZM19.6565 14.693C20.1992 14.693 20.7272 14.495 21.2405 14.099C21.7685 13.703 22.2452 13.1677 22.6705 12.493C23.0959 11.8184 23.4185 11.063 23.6385 10.227C23.7559 9.80171 23.8292 9.41304 23.8585 9.06104C23.9025 8.69438 23.9245 8.35704 23.9245 8.04904C23.9245 7.35971 23.7339 6.79504 23.3525 6.35504C22.9712 5.91504 22.4579 5.69504 21.8125 5.69504C21.3579 5.69504 20.9252 5.81237 20.5145 6.04704C20.1185 6.28171 19.7519 6.61171 19.4145 7.03704C19.0772 7.44771 18.7912 7.93171 18.5565 8.48904C18.3219 9.04638 18.1385 9.65504 18.0065 10.315C17.8745 10.9604 17.8085 11.6277 17.8085 12.317C17.8085 13.109 17.9699 13.703 18.2925 14.099C18.6152 14.495 19.0699 14.693 19.6565 14.693ZM44.8238 16.299C44.1492 16.299 43.5185 16.1964 42.9318 15.991C42.3598 15.7857 41.8978 15.463 41.5458 15.023C41.1938 14.583 41.0178 14.011 41.0178 13.307C41.0178 12.735 41.1278 12.2364 41.3478 11.811C41.5825 11.3857 41.8905 11.0264 42.2718 10.733C42.6532 10.425 43.0785 10.1684 43.5478 9.96304C44.0172 9.74304 44.4865 9.54504 44.9558 9.36904C45.5425 9.13437 46.0632 8.91438 46.5178 8.70904C46.9725 8.48904 47.3245 8.23971 47.5738 7.96104C47.8378 7.66771 47.9698 7.32304 47.9698 6.92704C47.9698 6.56038 47.8525 6.26704 47.6178 6.04704C47.3832 5.81237 46.9652 5.69504 46.3638 5.69504C45.7918 5.69504 45.2272 5.77571 44.6698 5.93704C44.1125 6.08371 43.5992 6.25971 43.1298 6.46504L42.6018 4.92504C43.1152 4.73437 43.7018 4.55104 44.3618 4.37504C45.0218 4.18437 45.7552 4.08904 46.5618 4.08904C47.2218 4.08904 47.8012 4.18437 48.2998 4.37504C48.8132 4.55104 49.2092 4.83704 49.4878 5.23304C49.7812 5.62904 49.9278 6.15704 49.9278 6.81704C49.9278 7.33037 49.8252 7.78504 49.6198 8.18104C49.4145 8.56238 49.1358 8.89971 48.7838 9.19304C48.4318 9.47171 48.0358 9.72104 47.5958 9.94104C47.1558 10.1464 46.7012 10.337 46.2318 10.513C45.5718 10.7624 44.9925 11.0044 44.4938 11.239C44.0098 11.459 43.6358 11.7157 43.3718 12.009C43.1078 12.3024 42.9758 12.6837 42.9758 13.153C42.9758 13.6224 43.1445 13.9964 43.4818 14.275C43.8338 14.5537 44.3765 14.693 45.1098 14.693C45.5058 14.693 45.8945 14.6564 46.2758 14.583C46.6572 14.495 47.0312 14.385 47.3978 14.253C47.7645 14.1064 48.1238 13.9524 48.4758 13.791V15.485C47.9625 15.7197 47.4125 15.9177 46.8258 16.079C46.2392 16.2257 45.5718 16.299 44.8238 16.299ZM50.4995 16.233C50.3088 16.233 50.1328 16.211 49.9715 16.167C49.8102 16.1377 49.6855 16.1084 49.5975 16.079V14.407C49.7002 14.451 49.8102 14.4877 49.9275 14.517C50.0448 14.5317 50.1768 14.539 50.3235 14.539C50.6755 14.539 50.9835 14.4584 51.2475 14.297C51.5262 14.121 51.7828 13.8497 52.0175 13.483C52.2522 13.1164 52.4868 12.6397 52.7215 12.053C52.9708 11.4664 53.2348 10.7624 53.5135 9.94104C53.8508 8.95837 54.1735 8.10771 54.4815 7.38904C54.7895 6.67037 55.1342 6.07638 55.5155 5.60704C55.9115 5.12304 56.3955 4.76371 56.9675 4.52904C57.5395 4.29437 58.2508 4.17704 59.1015 4.17704C59.6002 4.17704 60.0842 4.21371 60.5535 4.28704C61.0228 4.34571 61.4482 4.43371 61.8295 4.55104L59.3655 16.079H57.4075L59.6295 5.89304C59.5268 5.86371 59.4022 5.84171 59.2555 5.82704C59.1088 5.81238 58.9548 5.80504 58.7935 5.80504C58.1922 5.80504 57.7008 5.95171 57.3195 6.24504C56.9528 6.52371 56.6155 7.00771 56.3075 7.69704C55.9995 8.38637 55.6328 9.35437 55.2075 10.601C54.8848 11.5104 54.5768 12.317 54.2835 13.021C53.9902 13.7104 53.6748 14.297 53.3375 14.781C53.0002 15.2504 52.6042 15.6097 52.1495 15.859C51.6948 16.1084 51.1448 16.233 50.4995 16.233ZM66.7783 16.299C66.1476 16.299 65.5903 16.1524 65.1063 15.859C64.637 15.551 64.263 15.0964 63.9843 14.495C63.7203 13.8937 63.5883 13.153 63.5883 12.273C63.5883 11.393 63.6763 10.5497 63.8523 9.74304C64.043 8.92171 64.307 8.16638 64.6443 7.47704C64.9816 6.78771 65.385 6.19371 65.8543 5.69504C66.3383 5.18171 66.8736 4.78571 67.4603 4.50704C68.0616 4.21371 68.6996 4.06704 69.3743 4.06704C69.8876 4.06704 70.335 4.16237 70.7163 4.35304C71.1123 4.54371 71.4423 4.79304 71.7063 5.10104C71.9703 5.40904 72.183 5.74638 72.3443 6.11304H72.4543L73.1583 4.28704H74.6323L72.1243 16.079H70.5843L70.8703 13.901H70.7823C70.445 14.3264 70.071 14.7224 69.6603 15.089C69.2496 15.4557 68.8023 15.749 68.3183 15.969C67.849 16.189 67.3356 16.299 66.7783 16.299ZM67.4163 14.693C67.959 14.693 68.487 14.495 69.0003 14.099C69.5283 13.703 70.005 13.1677 70.4303 12.493C70.8556 11.8184 71.1783 11.063 71.3983 10.227C71.5156 9.80171 71.589 9.41304 71.6183 9.06104C71.6623 8.69438 71.6843 8.35704 71.6843 8.04904C71.6843 7.35971 71.4936 6.79504 71.1123 6.35504C70.731 5.91504 70.2176 5.69504 69.5723 5.69504C69.1176 5.69504 68.685 5.81237 68.2743 6.04704C67.8783 6.28171 67.5116 6.61171 67.1743 7.03704C66.837 7.44771 66.551 7.93171 66.3163 8.48904C66.0816 9.04638 65.8983 9.65504 65.7663 10.315C65.6343 10.9604 65.5683 11.6277 65.5683 12.317C65.5683 13.109 65.7296 13.703 66.0523 14.099C66.375 14.495 66.8296 14.693 67.4163 14.693ZM80.7342 16.299C79.6635 16.299 78.7835 16.101 78.0942 15.705C77.4049 15.2944 76.8989 14.7297 76.5762 14.011C76.2535 13.2777 76.0922 12.4197 76.0922 11.437C76.0922 10.6157 76.1802 9.83838 76.3562 9.10504C76.5322 8.35704 76.7962 7.68237 77.1482 7.08104C77.5002 6.46504 77.9255 5.93704 78.4242 5.49704C78.9375 5.04237 79.5169 4.69771 80.1622 4.46304C80.8222 4.21371 81.5482 4.08904 82.3402 4.08904C83.1762 4.08904 83.8875 4.19904 84.4742 4.41904C85.0755 4.63904 85.5302 4.97637 85.8382 5.43104C86.1462 5.87104 86.3002 6.42104 86.3002 7.08104C86.3002 7.65304 86.1682 8.14437 85.9042 8.55504C85.6549 8.96571 85.3102 9.29571 84.8702 9.54504C84.4302 9.79438 83.9169 9.98504 83.3302 10.117V10.161C83.9755 10.3224 84.5035 10.5937 84.9142 10.975C85.3249 11.3417 85.5302 11.9064 85.5302 12.669C85.5302 13.2117 85.3762 13.769 85.0682 14.341C84.7749 14.8984 84.2762 15.3677 83.5722 15.749C82.8682 16.1157 81.9222 16.299 80.7342 16.299ZM80.8662 14.715C81.5115 14.715 82.0395 14.6197 82.4502 14.429C82.8609 14.2384 83.1615 13.989 83.3522 13.681C83.5575 13.3584 83.6602 13.0137 83.6602 12.647C83.6602 12.2657 83.5575 11.9577 83.3522 11.723C83.1615 11.4737 82.8535 11.2904 82.4282 11.173C82.0175 11.041 81.4822 10.975 80.8222 10.975H78.0502V11.239V11.503C78.0502 12.6324 78.3069 13.4537 78.8202 13.967C79.3335 14.4657 80.0155 14.715 80.8662 14.715ZM80.6682 9.41304C81.3135 9.41304 81.9149 9.34704 82.4722 9.21504C83.0442 9.08304 83.4989 8.86304 83.8362 8.55504C84.1882 8.23238 84.3642 7.80704 84.3642 7.27904C84.3642 6.83904 84.2102 6.46504 83.9022 6.15704C83.5942 5.84904 83.0809 5.69504 82.3622 5.69504C81.6729 5.69504 81.0495 5.84171 80.4922 6.13504C79.9495 6.41371 79.4875 6.83171 79.1062 7.38904C78.7395 7.94637 78.4609 8.62104 78.2702 9.41304H80.6682ZM87.5545 16.079L90.0625 4.28704H91.9765L90.9645 9.19304H96.5085L97.5645 4.28704H99.5005L97.0145 16.079H95.0565L96.1565 10.799H90.6125L89.4905 16.079H87.5545ZM99.6014 21.359C99.2494 21.359 98.9634 21.337 98.7434 21.293C98.5088 21.249 98.2888 21.1977 98.0834 21.139V19.577C98.2888 19.6357 98.5088 19.6797 98.7434 19.709C98.9781 19.753 99.2274 19.775 99.4914 19.775C100.093 19.775 100.599 19.5917 101.009 19.225C101.435 18.8584 101.838 18.323 102.219 17.619L102.989 16.255L101.207 4.28704H103.143L103.913 10.117C103.987 10.5864 104.038 11.107 104.067 11.679C104.111 12.2364 104.141 12.7717 104.155 13.285C104.185 13.7837 104.199 14.187 104.199 14.495H104.265C104.368 14.2604 104.515 13.9084 104.705 13.439C104.911 12.9697 105.131 12.4857 105.365 11.987C105.6 11.4884 105.805 11.0777 105.981 10.755L109.413 4.28704H111.481L104.001 18.059C103.605 18.7924 103.202 19.401 102.791 19.885C102.381 20.3837 101.919 20.7504 101.405 20.985C100.892 21.2344 100.291 21.359 99.6014 21.359ZM120.981 16.255C119.602 16.255 118.554 15.8297 117.835 14.979C117.131 14.1284 116.779 13.043 116.779 11.723V11.195C116.794 11.019 116.801 10.887 116.801 10.799H114.095L112.973 16.079H111.037L113.545 4.28704H115.459L114.447 9.19304H117.065C117.3 8.35704 117.593 7.62371 117.945 6.99304C118.312 6.34771 118.722 5.81971 119.177 5.40904C119.646 4.98371 120.152 4.66838 120.695 4.46304C121.238 4.24304 121.817 4.13304 122.433 4.13304C123.372 4.13304 124.149 4.33104 124.765 4.72704C125.381 5.10838 125.843 5.64371 126.151 6.33304C126.474 7.00771 126.635 7.79237 126.635 8.68704C126.635 9.44971 126.554 10.1977 126.393 10.931C126.246 11.6644 126.019 12.3537 125.711 12.999C125.403 13.6297 125.022 14.1944 124.567 14.693C124.112 15.177 123.584 15.5584 122.983 15.837C122.382 16.1157 121.714 16.255 120.981 16.255ZM121.113 14.649C121.509 14.649 121.883 14.5537 122.235 14.363C122.587 14.1724 122.91 13.901 123.203 13.549C123.511 13.197 123.768 12.7717 123.973 12.273C124.193 11.7597 124.362 11.1877 124.479 10.557C124.596 9.91171 124.655 9.21504 124.655 8.46704C124.655 7.64571 124.457 6.98571 124.061 6.48704C123.68 5.98837 123.13 5.73904 122.411 5.73904C121.912 5.73904 121.465 5.85637 121.069 6.09104C120.673 6.32571 120.328 6.64837 120.035 7.05904C119.742 7.45504 119.5 7.90971 119.309 8.42304C119.118 8.93637 118.972 9.48637 118.869 10.073C118.781 10.645 118.737 11.217 118.737 11.789C118.737 12.6397 118.928 13.329 119.309 13.857C119.705 14.385 120.306 14.649 121.113 14.649ZM173.539 1.44479L170.657 15.8548H172.703L173.979 9.51879H179.677L180.029 7.78079H174.309L175.211 3.16079H182.075L182.427 1.44479H173.539ZM184.289 15.0628C184.949 15.7668 185.829 16.1188 186.929 16.1188C187.603 16.1188 188.271 15.9501 188.931 15.6128C189.605 15.2755 190.214 14.8281 190.757 14.2708H190.845L190.713 15.8548H192.363L194.519 5.09679H192.891L192.451 6.41679H192.363C192.084 5.93279 191.666 5.55146 191.109 5.27279C190.566 4.97946 189.921 4.83279 189.173 4.83279C188.351 4.83279 187.589 5.02346 186.885 5.40479C186.181 5.78612 185.557 6.30679 185.015 6.96679C184.472 7.62679 184.047 8.38946 183.739 9.25479C183.445 10.1055 183.299 11.0148 183.299 11.9828C183.299 13.3321 183.629 14.3588 184.289 15.0628ZM189.305 13.9408C188.703 14.2635 188.139 14.4248 187.611 14.4248C186.936 14.4248 186.393 14.2048 185.983 13.7648C185.587 13.3248 185.389 12.6355 185.389 11.6968C185.389 11.0075 185.491 10.3548 185.697 9.73879C185.902 9.10812 186.188 8.55812 186.555 8.08879C186.936 7.60479 187.376 7.22346 187.875 6.94479C188.373 6.66612 188.901 6.52679 189.459 6.52679C189.913 6.52679 190.361 6.63679 190.801 6.85679C191.255 7.07679 191.644 7.45079 191.967 7.97879L191.021 12.4668C190.478 13.1121 189.906 13.6035 189.305 13.9408ZM203.376 16.8448L202.672 20.2548H204.674L207.71 5.09679H206.104L205.642 6.41679H205.554C205.275 5.93279 204.857 5.55146 204.3 5.27279C203.757 4.97946 203.112 4.83279 202.364 4.83279C201.543 4.83279 200.78 5.02346 200.076 5.40479C199.372 5.78612 198.749 6.30679 198.206 6.96679C197.663 7.62679 197.238 8.38946 196.93 9.25479C196.637 10.1055 196.49 11.0148 196.49 11.9828C196.49 13.3321 196.82 14.3588 197.48 15.0628C198.14 15.7668 199.02 16.1188 200.12 16.1188C200.78 16.1188 201.447 15.9501 202.122 15.6128C202.811 15.2755 203.427 14.8281 203.97 14.2708H204.058C203.955 14.5641 203.86 14.8721 203.772 15.1948C203.684 15.5175 203.603 15.8181 203.53 16.0968C203.471 16.3901 203.42 16.6395 203.376 16.8448ZM202.496 13.9408C201.895 14.2635 201.33 14.4248 200.802 14.4248C200.127 14.4248 199.585 14.2048 199.174 13.7648C198.778 13.3101 198.58 12.6208 198.58 11.6968C198.58 11.0075 198.683 10.3548 198.888 9.73879C199.093 9.10812 199.379 8.55812 199.746 8.08879C200.127 7.60479 200.567 7.22346 201.066 6.94479C201.565 6.66612 202.093 6.52679 202.65 6.52679C203.105 6.52679 203.552 6.63679 203.992 6.85679C204.447 7.07679 204.828 7.45079 205.136 7.97879L204.212 12.4668C203.669 13.1121 203.097 13.6035 202.496 13.9408Z" fill="white"/>
</svg>
